HIERARCHY
ROOT Hips
{
  OFFSET 52.0655 93.9676 7.98162
  CHANNELS 6 Xposition Yposition Zposition Zrotation Xrotation Yrotation
  JOINT spine
  {
    OFFSET 0 7.4756 0.429885
    CHANNELS 3 Zrotation Xrotation Yrotation
    JOINT spine1
    {
      OFFSET 0 9.92301 0
      CHANNELS 3 Zrotation Xrotation Yrotation
      JOINT spine2
      {
        OFFSET 0 9.50804 0
        CHANNELS 3 Zrotation Xrotation Yrotation
        JOINT Neck
        {
          OFFSET 0 24.4111 1.16384
          CHANNELS 3 Zrotation Xrotation Yrotation
          JOINT Head
          {
            OFFSET 0 7.37523 0
            CHANNELS 3 Zrotation Xrotation Yrotation
            End Site
            {
              OFFSET 0 17.8522 -5.88741
            }
          }
        }
        JOINT RightShoulder
        {
          OFFSET -4.00356 10.2679 -0.557468
          CHANNELS 3 Zrotation Xrotation Yrotation
          JOINT RightArm
          {
            OFFSET 0 13.4673 0
            CHANNELS 3 Zrotation Xrotation Yrotation
            JOINT RightArmRoll
            {
              OFFSET 0 6.79858 0
              CHANNELS 3 Zrotation Xrotation Yrotation
              JOINT RightForeArm
              {
                OFFSET 0 19.8018 0
                CHANNELS 3 Zrotation Xrotation Yrotation
                JOINT RightForeArmRoll
                {
                  OFFSET 0 7.62905 0
                  CHANNELS 3 Zrotation Xrotation Yrotation
                  JOINT RightHand
                  {
                    OFFSET 0 15.3098 0
                    CHANNELS 3 Zrotation Xrotation Yrotation
                    End Site
                    {
                      OFFSET 0 0 0
                    }
                  }
                }
              }
            }
          }
        }
        JOINT LeftShoulder
        {
          OFFSET 4.00356 10.2679 -0.557468
          CHANNELS 3 Zrotation Xrotation Yrotation
          JOINT LeftArm
          {
            OFFSET 0 13.4673 0
            CHANNELS 3 Zrotation Xrotation Yrotation
            JOINT LeftArmRoll
            {
              OFFSET 0 6.79857 0
              CHANNELS 3 Zrotation Xrotation Yrotation
              JOINT LeftForeArm
              {
                OFFSET 0 19.8018 0
                CHANNELS 3 Zrotation Xrotation Yrotation
                JOINT LeftForeArmRoll
                {
                  OFFSET 0 7.62905 0
                  CHANNELS 3 Zrotation Xrotation Yrotation
                  JOINT LeftHand
                  {
                    OFFSET 0 15.3098 0
                    CHANNELS 3 Zrotation Xrotation Yrotation
                    End Site
                    {
                      OFFSET 0 0 0
                    }
                  }
                }
              }
            }
          }
        }
      }
    }
  }
  JOINT RightUpLeg
  {
    OFFSET -6.62609 -1.21505 -1.01927
    CHANNELS 3 Zrotation Xrotation Yrotation
    JOINT RightUpLegRoll
    {
      OFFSET 0 17.9517 0
      CHANNELS 3 Zrotation Xrotation Yrotation
      JOINT RightLeg
      {
        OFFSET 0 -22.2304 0
        CHANNELS 3 Zrotation Xrotation Yrotation
        JOINT RightLegRoll
        {
          OFFSET 0 22.3032 0
          CHANNELS 3 Zrotation Xrotation Yrotation
          JOINT RightFoot
          {
            OFFSET 0 18.5636 0
            CHANNELS 3 Zrotation Xrotation Yrotation
            JOINT RightToeBase
            {
              OFFSET 0 15.5183 0
              CHANNELS 3 Zrotation Xrotation Yrotation
              End Site
              {
                OFFSET 0.00657761 7.51539 -0.866263
              }
            }
          }
        }
      }
    }
  }
  JOINT LeftUpLeg
  {
    OFFSET 6.62609 -1.21505 -1.01927
    CHANNELS 3 Zrotation Xrotation Yrotation
    JOINT LeftUpLegRoll
    {
      OFFSET 0 17.9518 0
      CHANNELS 3 Zrotation Xrotation Yrotation
      JOINT LeftLeg
      {
        OFFSET 0 22.2303 0
        CHANNELS 3 Zrotation Xrotation Yrotation
        JOINT LeftLegRoll
        {
          OFFSET 0 22.5093 0
          CHANNELS 3 Zrotation Xrotation Yrotation
          JOINT LeftFoot
          {
            OFFSET 0 18.3575 0
            CHANNELS 3 Zrotation Xrotation Yrotation
            JOINT LeftToeBase
            {
              OFFSET 0 15.5183 0
              CHANNELS 3 Zrotation Xrotation Yrotation
              End Site
              {
                OFFSET -0.029478 7.51539 -0.866263
              }
            }
          }
        }
      }
    }
  }
}
MOTION
Frames: 4
Frame Time: 0.00208333
56.4795 93.6959 6.45227 -0.172416 -1.30295 4.2598 0.0342848 -2.68528 -0.197175 0.0572645 -1.36782 -0.397242 0.0615825 0.277233 -0.398235 -10.5677 24.2839 -0.311008 13.9159 -2.74102 -2.38038 6.46413 -14.0445 -12.5129 9.60087 26.352 107.2 -2.08296e-005 -3.0237e-006 2.36714e-006 3.65683 55.5964 -0.203286 7.73786e-006 -1.77876e-006 -3.00312 8.02978 -4.95144 0.697663 -21.8958 -18.5673 16.6353 9.52897 34.2843 -92.464 5.80845e-006 9.14104e-007 2.53574e-006 6.69393 46.9267 -4.56257 -1.19925e-005 -7.65474e-006 3.005 -8.03016 -4.95137 -0.697656 177.863 4.3964 -0.0699814 180 7.01554e-015 178.955 178.287 11.7093 179.636 -2.43572e-006 -6.39283e-006 0.171111 -18.8737 68.3515 19.8282 8.13649 25.2327 -3.48774 179.451 2.16062 3.01525 4.54188e-006 -4.6773e-006 -0.920832 -4.07877 -5.45256 -0.0701759 4.12191e-006 -2.02802e-007 -0.0617021 18.7585 68.3176 -19.8148 -8.13649 25.2327 3.48774 
56.4732 93.7 6.46402 -0.183264 -1.29393 4.23282 0.0335912 -2.68482 -0.19825 0.0558876 -1.3669 -0.399362 0.0603411 0.278154 -0.400329 -10.5203 24.1831 -0.328771 13.8716 -2.70408 -2.38272 6.5445 -14.0544 -12.5193 9.73029 26.363 106.965 -2.08296e-005 -3.0237e-006 2.36714e-006 3.32274 55.1594 -0.058181 7.73786e-006 -1.77876e-006 -3.00312 8.02978 -4.95144 0.697663 -21.9013 -18.5591 16.6239 9.33022 34.3246 -92.2527 5.80845e-006 9.14104e-007 2.53574e-006 6.70066 46.5851 -4.51297 -1.19925e-005 -7.65474e-006 3.00498 -8.03016 -4.95137 -0.697656 177.876 4.40131 -0.0809842 180 7.01554e-015 178.955 178.289 11.6923 179.636 -2.43572e-006 -6.39283e-006 0.170914 -18.8748 68.3526 19.8292 8.13649 25.2327 -3.48774 179.463 2.17347 3.00871 4.54188e-006 -4.6773e-006 -0.920834 -4.07906 -5.46019 -0.0702808 4.12191e-006 -2.02802e-007 -0.0616482 18.7581 68.3171 -19.8143 -8.13649 25.2327 3.48774 
56.459 93.7055 6.49043 -0.194227 -1.28405 4.20635 0.0324938 -2.68415 -0.199541 0.0537376 -1.36556 -0.40186 0.0583046 0.279487 -0.402787 -10.461 24.0748 -0.350424 13.8187 -2.66155 -2.38592 6.63569 -14.0669 -12.5285 9.84833 26.3749 106.734 -2.08296e-005 -3.0237e-006 2.36714e-006 2.9903 54.7171 0.0822796 7.73786e-006 -1.77876e-006 -3.00312 8.02978 -4.95144 0.697663 -21.8977 -18.5534 16.6173 9.12398 34.3683 -92.0304 5.80845e-006 9.14104e-007 2.53574e-006 6.70433 46.2378 -4.46179 -1.19925e-005 -7.65474e-006 3.00495 -8.03016 -4.95137 -0.697656 177.888 4.40701 -0.0915593 180 7.01554e-015 178.955 178.291 11.6751 179.636 -2.43572e-006 -6.39283e-006 0.170722 -18.8756 68.3533 19.8299 8.13649 25.2327 -3.48774 179.475 2.18803 3.00197 4.54188e-006 -4.6773e-006 -0.920837 -4.07958 -5.46881 -0.0703923 4.12191e-006 -2.02802e-007 -0.0615944 18.7576 68.3166 -19.8138 -8.13649 25.2327 3.48774 
56.4584 93.7001 6.48348 -0.205362 -1.27345 4.18044 0.0308946 -2.68317 -0.201032 0.0506184 -1.3636 -0.404713 0.0552883 0.281453 -0.405586 -10.387 23.9573 -0.377139 13.7551 -2.61244 -2.39048 6.73927 -14.0823 -12.5409 9.95576 26.3858 106.506 -2.08296e-005 -3.0237e-006 2.36714e-006 2.65734 54.2721 0.219914 7.73786e-006 -1.77876e-006 -3.00312 8.02978 -4.95144 0.697663 -21.8831 -18.5509 16.6167 8.91006 34.4152 -91.7989 5.80845e-006 9.14104e-007 2.53574e-006 6.70622 45.8883 -4.41022 -1.19925e-005 -7.65474e-006 3.00493 -8.03016 -4.95137 -0.697656 177.9 4.41324 -0.10175 180 7.01554e-015 178.955 178.292 11.6576 179.637 -2.43572e-006 -6.39283e-006 0.170539 -18.8761 68.3538 19.8304 8.13649 25.2327 -3.48774 179.488 2.20445 2.99502 4.54188e-006 -4.6773e-006 -0.920844 -4.08028 -5.47883 -0.0705139 4.12191e-006 -2.02802e-007 -0.0615408 18.7572 68.3161 -19.8133 -8.13649 25.2327 3.48774 
